<?xml version="1.0" encoding="UTF-8"?>
<svg width="40px" height="40px" viewBox="0 0 40 40" version="1.1" xmlns="http://www.w3.org/2000/svg" xmlns:xlink="http://www.w3.org/1999/xlink">
    <!-- Generator: Sketch 41.2 (35397) - http://www.bohemiancoding.com/sketch -->
    <title>Group</title>
    <desc>Created with Sketch.</desc>
    <defs></defs>
    <g id="Page-1" stroke="none" stroke-width="1" fill="none" fill-rule="evenodd">
        <g id="Artboard-1" transform="translate(-564.000000, -353.000000)">
            <g id="Group" transform="translate(564.000000, 353.000000)">
                <rect id="Rectangle" fill="#E52F4F" x="0" y="0" width="40" height="40"></rect>
                <path d="M9.884,12 L4,12 C3.448,12 3,11.552 3,11 L3,5 C3,4.448 3.448,4 4,4 L9.884,4 C10.436,4 10.884,4.448 10.884,5 L10.884,11 C10.884,11.552 10.436,12 9.884,12 Z M36,12 L17.304,12 C16.752,12 16.304,11.552 16.304,11 L16.304,5 C16.304,4.448 16.752,4 17.304,4 L36,4 C36.552,4 37,4.448 37,5 L37,11 C37,11.552 36.552,12 36,12 Z M9.884,24 L4,24 C3.448,24 3,23.552 3,23 L3,17 C3,16.448 3.448,16 4,16 L9.884,16 C10.436,16 10.884,16.448 10.884,17 L10.884,23 C10.884,23.552 10.436,24 9.884,24 Z M36,24 L17.304,24 C16.752,24 16.304,23.552 16.304,23 L16.304,17 C16.304,16.448 16.752,16 17.304,16 L36,16 C36.552,16 37,16.448 37,17 L37,23 C37,23.552 36.552,24 36,24 Z M9.884,36 L4,36 C3.448,36 3,35.552 3,35 L3,29 C3,28.448 3.448,28 4,28 L9.884,28 C10.436,28 10.884,28.448 10.884,29 L10.884,35 C10.884,35.552 10.436,36 9.884,36 Z M36,36 L17.304,36 C16.752,36 16.304,35.552 16.304,35 L16.304,29 C16.304,28.448 16.752,28 17.304,28 L36,28 C36.552,28 37,28.448 37,29 L37,35 C37,35.552 36.552,36 36,36 Z" id="Icon" fill="#FFFFFF"></path>
            </g>
        </g>
    </g>
</svg>