<?xml version="1.0" encoding="UTF-8"?>
<svg width="20px" height="20px" viewBox="0 0 20 20" version="1.1" xmlns="http://www.w3.org/2000/svg" xmlns:xlink="http://www.w3.org/1999/xlink">
    <!-- Generator: Sketch 41.2 (35397) - http://www.bohemiancoding.com/sketch -->
    <title>Fill 180</title>
    <desc>Created with Sketch.</desc>
    <defs></defs>
    <g id="Page-1" stroke="none" stroke-width="1" fill="none" fill-rule="evenodd">
        <g id="Creating-List-(Public)" transform="translate(-865.000000, -536.000000)" fill="#C4BFBF">
            <g id="Bismack" transform="translate(72.000000, 525.000000)">
                <path d="M811.955423,13.5398693 L810.459876,12.0442874 C809.708769,11.2931631 808.680997,10.9187121 807.606559,11.0148249 C806.73712,11.092604 805.936569,11.5231671 805.31935,12.1404002 L795.138854,22.321135 C795.001077,22.4589152 794.901634,22.6305848 794.851634,22.8189215 L793.038867,29.6040409 C792.818312,30.4279443 793.572197,31.1812909 794.396081,30.961287 L801.180486,29.1484773 C801.368818,29.0984764 801.540484,28.9990303 801.678261,28.86125 L811.955423,18.5844025 C813.348192,17.1916002 813.348192,14.9326716 811.955423,13.5398693 L811.955423,13.5398693 Z M798.483835,22.112798 L804.741021,15.85491 L808.14489,19.2588588 L801.887148,25.5161912 L798.483835,22.112798 L798.483835,22.112798 Z M796.916622,23.6817145 L800.317713,27.083441 L795.676629,28.3234628 L796.916622,23.6817145 L796.916622,23.6817145 Z M810.387099,17.0165972 L809.712658,17.6904979 L806.309345,14.2865491 L806.98323,13.6126484 C807.493227,13.1037505 808.381555,13.1026394 808.891552,13.6126484 L810.387099,15.1082302 C810.912651,15.6343506 810.912651,16.4899212 810.387099,17.0165972 L810.387099,17.0165972 Z" id="Fill-180"></path>
            </g>
        </g>
    </g>
</svg>