<?xml version="1.0" encoding="UTF-8"?>
<svg width="27px" height="34px" viewBox="0 0 27 34" version="1.1" xmlns="http://www.w3.org/2000/svg" xmlns:xlink="http://www.w3.org/1999/xlink">
    <!-- Generator: Sketch 41.2 (35397) - http://www.bohemiancoding.com/sketch -->
    <title>Icon</title>
    <desc>Created with Sketch.</desc>
    <defs></defs>
    <g id="Page-1" stroke="none" stroke-width="1" fill="none" fill-rule="evenodd">
        <g id="Artboard-1" transform="translate(-129.000000, -623.000000)" fill="#C4BFBF">
            <path d="M152,634 L152,629.995 C152,626.132 148.868,623 145.005,623 L139.995,623 C136.132,623 133,626.132 133,629.995 L133,634 C133,634.552 132.552,635 132,635 L131,635 C129.895,635 129,635.895 129,637 L129,644.102 C129,651.181 135.045,656.96 142.482,657 L142.561,657 C150.1,656.96 156,651.312 156,644.128 L156,637 C156,635.895 155.105,635 154,635 L153,635 C152.448,635 152,634.552 152,634 L152,634 Z M137,629.995 C137,628.341 138.341,627 139.995,627 L145.005,627 C146.659,627 148,628.341 148,629.995 L148,634 C148,634.552 147.552,635 147,635 L138,635 C137.448,635 137,634.552 137,634 L137,629.995 L137,629.995 Z M152,644.128 C152,649.085 147.837,652.981 142.522,653 C137.27,652.981 133,648.991 133,644.102 L133,640 C133,639.448 133.448,639 134,639 L151,639 C151.552,639 152,639.448 152,640 L152,644.128 Z M140.122,645.719 L141.541,643.476 C141.943,642.841 143.057,642.841 143.459,643.476 L144.879,645.719 C145.249,646.304 144.728,647 143.92,647 L141.08,647 C140.272,647 139.751,646.304 140.122,645.719 Z" id="Icon"></path>
        </g>
    </g>
</svg>