<?xml version="1.0" encoding="UTF-8"?>
<svg width="34px" height="26px" viewBox="0 0 34 26" version="1.1" xmlns="http://www.w3.org/2000/svg" xmlns:xlink="http://www.w3.org/1999/xlink">
    <!-- Generator: Sketch 41.2 (35397) - http://www.bohemiancoding.com/sketch -->
    <title>Fill 147</title>
    <desc>Created with Sketch.</desc>
    <defs></defs>
    <g id="Page-1" stroke="none" stroke-width="1" fill="none" fill-rule="evenodd">
        <g id="Artboard-1" transform="translate(-523.000000, -138.000000)" fill="#FFFFFF">
            <path d="M557,162 C557,163.105 556.105,164 555,164 L525,164 C523.896,164 523,163.105 523,162 L523,140 C523,138.895 523.896,138 525,138 L555,138 C556.105,138 557,138.895 557,140 L557,162 L557,162 Z M553,143 C553,142.448 552.552,142 552,142 L528,142 C527.448,142 527,142.448 527,143 L527,159 C527,159.552 527.448,160 528,160 L552,160 C552.552,160 553,159.552 553,159 L553,143 L553,143 Z M533.681,153.586 L538.386,147.317 C538.704,146.894 539.296,146.894 539.614,147.317 L544.319,153.586 C544.743,154.151 544.375,155 543.705,155 L534.295,155 C533.625,155 533.257,154.151 533.681,153.586 Z M548,148 C548,149.105 547.105,150 546,150 C544.896,150 544,149.105 544,148 C544,146.895 544.896,146 546,146 C547.105,146 548,146.895 548,148 Z" id="Fill-147"></path>
        </g>
    </g>
</svg>