<?xml version="1.0" encoding="UTF-8"?>
<svg width="25px" height="35px" viewBox="0 0 25 35" version="1.1" xmlns="http://www.w3.org/2000/svg" xmlns:xlink="http://www.w3.org/1999/xlink">
    <!-- Generator: Sketch 41.2 (35397) - http://www.bohemiancoding.com/sketch -->
    <title>Icon</title>
    <desc>Created with Sketch.</desc>
    <defs></defs>
    <g id="Page-1" stroke="none" stroke-width="1" fill="none" fill-rule="evenodd">
        <g id="Artboard-1" transform="translate(-130.000000, -783.000000)" fill="#FFFFFF">
            <path d="M130.028,796.332 L133.313,816.332 C133.471,817.295 134.283,818 135.235,818 L149.766,818 C150.718,818 151.53,817.295 151.688,816.332 L154.972,796.332 C155.173,795.112 154.256,794 153.05,794 L131.95,794 C130.744,794 129.827,795.112 130.028,796.332 L130.028,796.332 Z M147.293,814 L137.708,814 C137.232,814 136.826,813.648 136.747,813.166 L134.446,799.166 C134.346,798.556 134.805,798 135.408,798 L149.593,798 C150.196,798 150.654,798.556 150.554,799.166 L148.254,813.166 C148.175,813.647 147.769,814 147.293,814 Z M154,787.207 L145.203,787.207 C144.651,787.207 144.203,786.783 144.203,786.259 L144.203,783.948 C144.203,783.424 143.755,783 143.203,783 L141.203,783 C140.651,783 140.203,783.424 140.203,783.948 L140.203,786.259 C140.203,786.783 139.755,787.207 139.203,787.207 L131,787.207 C130.448,787.207 130,787.632 130,788.156 L130,790.052 C130,790.575 130.448,791 131,791 L154,791 C154.552,791 155,790.575 155,790.052 L155,788.156 C155,787.632 154.552,787.207 154,787.207 Z" id="Icon"></path>
        </g>
    </g>
</svg>