<?xml version="1.0" encoding="UTF-8"?>
<svg width="27px" height="34px" viewBox="0 0 27 34" version="1.1" xmlns="http://www.w3.org/2000/svg" xmlns:xlink="http://www.w3.org/1999/xlink">
    <!-- Generator: Sketch 41.2 (35397) - http://www.bohemiancoding.com/sketch -->
    <title>Icon</title>
    <desc>Created with Sketch.</desc>
    <defs></defs>
    <g id="Page-1" stroke="none" stroke-width="1" fill="none" fill-rule="evenodd">
        <g id="Artboard-1" transform="translate(-204.000000, -623.000000)" fill="#C4BFBF">
            <path d="M229,635 L213,635 C212.448,635 212,634.552 212,634 L212,629.995 C212,628.341 213.341,627 214.995,627 L220.005,627 C221.659,627 223,628.341 223,629.995 L223,630.984 C223,631.537 223.448,631.984 224,631.984 L226,631.984 C226.552,631.984 227,631.537 227,630.984 L227,629.995 C227,626.132 223.868,623 220.005,623 L214.995,623 C211.132,623 208,626.132 208,629.995 L208,634 C208,634.552 207.552,635 207,635 L206,635 C204.896,635 204,635.895 204,637 L204,644.102 C204,651.181 210.045,656.96 217.483,657 L217.561,657 C225.1,656.96 231,651.312 231,644.128 L231,637 C231,635.895 230.105,635 229,635 L229,635 Z M227,644.128 C227,649.085 222.837,652.981 217.522,653 C212.27,652.981 208,648.991 208,644.102 L208,640 C208,639.448 208.448,639 209,639 L226,639 C226.552,639 227,639.448 227,640 L227,644.128 Z M215.122,645.719 L216.541,643.476 C216.943,642.841 218.057,642.841 218.459,643.476 L219.879,645.719 C220.249,646.303 219.728,647 218.92,647 L216.08,647 C215.272,647 214.751,646.303 215.122,645.719 Z" id="Icon"></path>
        </g>
    </g>
</svg>