<?xml version="1.0" encoding="UTF-8"?>
<svg width="36px" height="36px" viewBox="0 0 36 36" version="1.1" xmlns="http://www.w3.org/2000/svg" xmlns:xlink="http://www.w3.org/1999/xlink">
    <!-- Generator: Sketch 41.2 (35397) - http://www.bohemiancoding.com/sketch -->
    <title>Fill 180</title>
    <desc>Created with Sketch.</desc>
    <defs></defs>
    <g id="Page-1" stroke="none" stroke-width="1" fill="none" fill-rule="evenodd">
        <g id="Artboard-1" transform="translate(-282.000000, -48.000000)" fill="#FFFFFF">
            <path d="M316.12,52.572 L313.428,49.88 C312.076,48.528 310.226,47.854 308.292,48.027 C306.727,48.167 305.286,48.942 304.175,50.053 L285.85,68.378 C285.602,68.626 285.423,68.935 285.333,69.274 L282.07,81.487 C281.673,82.97 283.03,84.326 284.513,83.93 L296.725,80.667 C297.064,80.577 297.373,80.398 297.621,80.15 L316.12,61.652 C318.627,59.145 318.627,55.079 316.12,52.572 L316.12,52.572 Z M291.871,68.003 L303.134,56.739 L309.261,62.866 L297.997,74.129 L291.871,68.003 L291.871,68.003 Z M289.05,70.827 L295.172,76.95 L286.818,79.182 L289.05,70.827 L289.05,70.827 Z M313.297,58.83 L312.083,60.043 L305.957,53.916 L307.17,52.703 C308.088,51.787 309.687,51.785 310.605,52.703 L313.297,55.395 C314.243,56.342 314.243,57.882 313.297,58.83 L313.297,58.83 Z" id="Fill-180"></path>
        </g>
    </g>
</svg>